<svg xmlns="http://www.w3.org/2000/svg" width="384.337" height="813.335" viewBox="0 0 384.337 813.335" fill="none">
<path d="M 0 813.335 C 26.957 698.767 76.828 461.543 60.654 429.194 C 40.436 388.758 0 333.158 0 297.777 C 0 262.395 22.787 8.814 49.087 1.801 C 85.181 -7.824 100.1 20.088 111.199 110.759 C 111.204 110.798 111.208 110.837 111.213 110.876 C 112.27 104.719 114.202 99.349 117.425 96.126 C 132.588 80.963 177.581 82.651 187.016 90.854 C 191.574 94.817 194.573 99.356 196.436 104.091 C 198.394 98.153 202.233 93.275 209.825 90.854 C 229.145 84.694 249.177 86.028 260.391 99.323 C 264.102 86.632 269.669 72.675 277.681 58.107 C 291.069 33.766 300.05 1.801 335.431 1.801 C 367.796 1.801 368.978 80.431 358.869 141.086 C 348.76 201.742 361.9 214.029 361.9 224.138 C 361.9 234.247 370.004 236.288 380.669 259.751 C 390.294 280.926 379.225 309.32 367.675 341.564 C 350.801 388.669 318.433 434.249 308.324 464.576 C 298.215 494.903 298.215 565.666 298.215 626.32 C 298.215 686.974 338.651 772.901 308.324 788.064 C 284.063 800.195 92.666 809.966 0 813.335 Z" fill="rgb(248,243,224)" fill-rule="nonzero"></path>
</svg>
