<svg xmlns="http://www.w3.org/2000/svg" width="110.487" height="192.318" viewBox="0 0 110.487 192.318" fill="none">
<path d="M 5.984 108.074 C 5.985 119.525 10.601 127.558 12.768 131.931 C 11.354 144.337 6.944 171.678 0.614 181.793 C -7.3 194.437 63.92 195.153 63.92 186.803 C 63.92 178.453 85.399 151.256 94.16 145.769 C 102.922 140.281 104.335 131.931 109.139 120.957 C 113.944 109.983 104.617 77.537 101.226 68.709 C 97.834 59.882 123.553 2.624 101.226 6.68 C 89.294 8.848 82.573 70.141 73.812 66.085 C 65.051 62.029 81.725 0 63.92 0 C 43.918 0 57.985 66.801 45.267 64.177 C 38.7 62.822 34.849 60.475 26.897 64.177 C 24.535 65.276 23.525 65.328 22.014 65.287 C 20.355 65.242 18.091 65.086 12.768 66.085 C -1.217 68.709 5.981 92.341 5.984 108.074 Z" fill="#C0D6FF" fill-rule="nonzero"></path>
</svg>
